<?xml version="1.0" encoding="UTF-8" standalone="no"?>
<!-- Created with Inkscape (http://www.inkscape.org/) -->

<svg
   width="155.70718mm"
   height="76.442223mm"
   viewBox="0 0 155.70718 76.442223"
   version="1.1"
   id="svg1"
   xml:space="preserve"
   xmlns="http://www.w3.org/2000/svg"
   xmlns:svg="http://www.w3.org/2000/svg"><defs
     id="defs1" /><g
     id="layer1"
     style="display:inline"
     transform="translate(-9.8208989,-40.111325)"><circle
       id="path3030-1-2"
       style="color:#000000;display:inline;fill:#000000;stroke:#000000;stroke-width:1.28631"
       cx="23.372046"
       cy="97.074715"
       r="6.4315605" /><rect
       style="fill:#000000;stroke-width:0.104003"
       id="rect1"
       width="2"
       height="76.442223"
       x="22.326647"
       y="40.111324" /><rect
       style="fill:#000000;stroke-width:0.148435"
       id="rect1-7"
       width="2"
       height="155.70718"
       x="-97.934891"
       y="9.820899"
       transform="rotate(-90)" /><path
       id="path1928"
       style="fill:#000000;fill-opacity:1;fill-rule:nonzero;stroke:none;stroke-width:0.109053"
       d="m 41.55718,96.93489 v 1.531708 h 2.458541 V 95.403183 H 41.55718 v 1.531707" /><path
       id="path1930"
       style="fill:#000000;fill-opacity:1;fill-rule:nonzero;stroke:none;stroke-width:0.109053"
       d="m 45.911594,96.934881 v 3.760559 h 2.458541 v -7.5211 h -2.458541 v 3.760541" /><path
       id="path1932"
       style="fill:#000000;fill-opacity:1;fill-rule:nonzero;stroke:none;stroke-width:0.109053"
       d="M 50.266007,96.934509 V 107.56712 H 52.72455 V 86.30266 h -2.458543 v 10.63185" /><path
       id="path1938"
       style="fill:#000000;fill-opacity:1;fill-rule:nonzero;stroke:none;stroke-width:0.109053"
       d="m 54.620423,96.934886 v 16.747224 h 2.458543 V 80.187671 h -2.458543 v 16.747215" /><path
       id="path1940"
       style="fill:#000000;fill-opacity:1;fill-rule:nonzero;stroke:none;stroke-width:0.109053"
       d="m 58.974839,96.934889 v 8.373991 h 2.458543 V 88.560901 h -2.458543 v 8.373988" /><path
       id="path1942"
       style="fill:#000000;fill-opacity:1;fill-rule:nonzero;stroke:none;stroke-width:0.109053"
       d="m 63.329254,96.934892 v 2.003584 h 2.458677 v -4.007171 h -2.458677 v 2.003587" /><path
       id="path1944"
       style="fill:#000000;fill-opacity:1;fill-rule:nonzero;stroke:none;stroke-width:0.109053"
       d="m 67.683804,96.934883 v 9.837757 h 2.458543 v -19.6755 h -2.458543 v 9.837743" /><path
       id="path1944-4"
       style="fill:#000000;fill-opacity:1;fill-rule:nonzero;stroke:none;stroke-width:0.128468"
       d="m 132.99879,96.934888 v 13.652502 h 2.45856 V 83.282391 h -2.45856 v 13.652497" /><path
       id="path1944-4-21"
       style="fill:#000000;fill-opacity:1;fill-rule:nonzero;stroke:none;stroke-width:0.103129"
       d="m 119.93602,96.93489 v 8.79806 h 2.45855 V 88.13683 h -2.45855 v 8.79806" /><path
       id="path1944-4-2"
       style="fill:#000000;fill-opacity:1;fill-rule:nonzero;stroke:none;stroke-width:0.0882392"
       d="m 141.70715,96.934887 v 6.440863 h 2.45855 V 90.49403 h -2.45855 v 6.440857" /><path
       id="path1946"
       style="fill:#000000;fill-opacity:1;fill-rule:nonzero;stroke:none;stroke-width:0.109053"
       d="m 72.03822,96.934883 v 15.670607 h 2.458545 V 81.264289 H 72.03822 v 15.670594" /><path
       id="path1948"
       style="fill:#000000;fill-opacity:1;fill-rule:nonzero;stroke:none;stroke-width:0.109053"
       d="m 76.392637,96.935274 v 19.533456 h 2.458544 V 77.401049 h -2.458544 v 19.534225" /><path
       id="path1950"
       style="fill:#000000;fill-opacity:1;fill-rule:nonzero;stroke:none;stroke-width:0.109053"
       d="m 80.747054,96.934892 v 6.203178 h 2.458719 V 90.731709 h -2.458719 v 6.203183" /><path
       id="path1950-5"
       style="fill:#000000;fill-opacity:1;fill-rule:nonzero;stroke:none;stroke-width:0.103394"
       d="m 115.58142,96.934894 v 5.576066 h 2.45873 V 91.35882 h -2.45873 v 5.576072" /><path
       id="path1952"
       style="fill:#000000;fill-opacity:1;fill-rule:nonzero;stroke:none;stroke-width:0.109053"
       d="m 85.101646,96.934877 v 3.101613 h 2.458543 v -6.203198 h -2.458543 v 3.101585" /><path
       id="path1954"
       style="fill:#000000;fill-opacity:1;fill-rule:nonzero;stroke:none;stroke-width:0.109053"
       d="m 89.456061,96.934886 v 0.790291 h 2.457922 v -1.580573 h -2.457922 v 0.790282" /><path
       id="path1956"
       style="fill:#000000;fill-opacity:1;fill-rule:nonzero;stroke:none;stroke-width:0.109053"
       d="m 93.809856,96.934892 v 6.203178 h 2.458551 V 90.731709 h -2.458551 v 6.203183" /><path
       id="path1958"
       style="fill:#000000;fill-opacity:1;fill-rule:nonzero;stroke:none;stroke-width:0.109053"
       d="m 98.16428,96.935272 v 10.233268 h 2.45805 v -20.4673 h -2.45805 v 10.234032" /><path
       id="path1958-29"
       style="fill:#000000;fill-opacity:1;fill-rule:nonzero;stroke:none;stroke-width:0.109053"
       d="m 137.35322,96.935271 v 10.233269 h 2.45806 v -20.4673 h -2.45806 v 10.234031" /><path
       id="path1958-2"
       style="fill:#000000;fill-opacity:1;fill-rule:nonzero;stroke:none;stroke-width:0.116041"
       d="m 124.29044,96.935314 v 11.586876 h 2.45807 V 85.347591 h -2.45807 v 11.587723" /><path
       id="path1960"
       style="fill:#000000;fill-opacity:1;fill-rule:nonzero;stroke:none;stroke-width:0.109053"
       d="m 102.5182,96.934883 v 15.670607 h 2.45853 V 81.264289 h -2.45853 v 15.670594" /><path
       id="path1962"
       style="fill:#000000;fill-opacity:1;fill-rule:nonzero;stroke:none;stroke-width:0.109053"
       d="m 106.8726,88.560901 v 16.747979 h 2.45854 V 88.560901 h -2.45854" /><path
       id="path1964"
       style="fill:#000000;fill-opacity:1;fill-rule:nonzero;stroke:none;stroke-width:0.109053"
       d="m 111.22702,96.934881 v 3.760559 h 2.45853 v -7.5211 h -2.45853 v 3.760541" /><path
       id="path1966"
       style="fill:#000000;fill-opacity:1;fill-rule:nonzero;stroke:none;stroke-width:0.109053"
       d="m 146.06158,94.474695 v 4.920391 h 2.45853 v -4.920391 h -2.45853" /><path
       id="path1968"
       style="fill:#000000;fill-opacity:1;fill-rule:nonzero;stroke:none;stroke-width:0.109053"
       d="m 150.41598,96.934891 v 1.546217 h 2.45855 v -3.092434 h -2.45855 v 1.546217" /><path
       id="path1972"
       style="fill:#000000;fill-opacity:1;fill-rule:nonzero;stroke:none;stroke-width:0.428477"
       d="m 128.64439,96.934885 v 7.885845 h 2.45853 V 89.049049 h -2.45853 v 7.885836" /><path
       d="m 38.344115,52.971139 h -6.349996 v -5.884328 l 14.816656,-1.269999 v 25.315314 h -8.46666 z m 28.786677,-7.154327 q 6.307662,0 9.440326,3.132664 3.174998,3.132664 3.174998,8.97466 v 1.481665 q 0,5.841996 -3.259664,9.016994 -3.217331,3.132664 -9.35566,3.132664 H 65.31046 q -3.682997,0 -6.857995,-0.423333 -3.174997,-0.381 -4.148663,-0.846666 v -6.349995 q 1.523999,0.338666 4.36033,0.592666 2.878664,0.254 6.646328,0.254 3.047998,0 4.61433,-0.804333 1.608666,-0.846666 1.608666,-2.116665 0,-0.719666 -0.550333,-0.719666 -0.211667,0 -0.338667,0.04233 -3.344331,0.888999 -7.027328,0.888999 -5.714996,0 -8.297327,-1.693332 -2.582331,-1.693332 -2.582331,-5.545662 0,-2.709332 1.523999,-4.74133 1.523998,-2.031998 4.36033,-3.132664 2.878664,-1.142999 6.688661,-1.142999 z m 0.04233,10.752658 q 4.36033,0 4.36033,-1.354666 0,-1.058332 -1.100666,-1.820331 Q 69.33212,52.59014 67.130788,52.59014 H 65.35279 q -2.031999,0 -3.132665,0.592666 -1.058332,0.550333 -1.058332,1.481666 0,1.904998 4.148663,1.904998 z m 22.859948,5.672663 q 0.169334,-0.169334 0.169334,-0.423333 0,-0.254 -0.169334,-0.423334 l -7.74699,-9.228659 h 8.97466 l 3.471331,5.291662 q 0.254,0.423333 0.634999,0.423333 0.381,0 0.635,-0.423333 l 3.555997,-5.291662 h 9.016993 l -7.61999,9.228659 q -0.16934,0.254 -0.16934,0.423334 0,0.169333 0.16934,0.423333 l 7.61999,8.889993 H 99.515734 L 96.00207,66.05213 q -0.254,-0.381 -0.635,-0.381 -0.380999,0 -0.634999,0.381 -0.296333,0.465666 -3.471331,5.079996 h -8.97466 z m 26.16201,-9.270994 h -6.34999 v -5.884328 l 14.81665,-1.269999 v 25.315314 h -8.46666 z m 28.78668,-7.154327 q 6.30766,0 9.44033,3.132664 3.17499,3.132664 3.17499,8.97466 v 1.481665 q 0,5.841996 -3.25966,9.016994 -3.21733,3.132664 -9.35566,3.132664 h -1.82033 q -3.683,0 -6.858,-0.423333 -3.17499,-0.381 -4.14866,-0.846666 v -6.349995 q 1.524,0.338666 4.36033,0.592666 2.87866,0.254 6.64633,0.254 3.048,0 4.61433,-0.804333 1.60866,-0.846666 1.60866,-2.116665 0,-0.719666 -0.55033,-0.719666 -0.21167,0 -0.33867,0.04233 -3.34433,0.888999 -7.02732,0.888999 -5.715,0 -8.29733,-1.693332 -2.58233,-1.693332 -2.58233,-5.545662 0,-2.709332 1.524,-4.74133 1.52399,-2.031998 4.36033,-3.132664 2.87866,-1.142999 6.68866,-1.142999 z m 0.0423,10.752658 q 4.36033,0 4.36033,-1.354666 0,-1.058332 -1.10066,-1.820331 -1.10067,-0.804333 -3.302,-0.804333 h -1.778 q -2.032,0 -3.13266,0.592666 -1.05834,0.550333 -1.05834,1.481666 0,1.904998 4.14867,1.904998 z"
       id="text66"
       style="font-size:42.3333px;font-family:Dashboard;-inkscape-font-specification:Dashboard;stroke-width:0.264583"
       aria-label="19x19" /></g><g
     id="g57"
     style="display:none"
     transform="translate(-9.8208989,-40.111325)"><circle
       id="circle2"
       style="color:#000000;display:inline;fill:#000000;stroke:#000000;stroke-width:1.28631"
       cx="23.372046"
       cy="97.074715"
       r="6.4315605" /><rect
       style="fill:#000000;stroke-width:0.104003"
       id="rect2"
       width="2"
       height="76.442223"
       x="22.326647"
       y="40.111324" /><rect
       style="fill:#000000;stroke-width:0.148435"
       id="rect5"
       width="2"
       height="155.70718"
       x="-97.934891"
       y="9.820899"
       transform="rotate(-90)" /><path
       id="path30"
       style="display:none;fill:#000000;fill-opacity:1;fill-rule:nonzero;stroke:none;stroke-width:0.109053"
       d="m 41.55718,96.93489 v 1.531708 h 2.458541 V 95.403183 H 41.55718 v 1.531707" /><path
       id="path31"
       style="display:none;fill:#000000;fill-opacity:1;fill-rule:nonzero;stroke:none;stroke-width:0.109053"
       d="m 45.911594,96.934881 v 3.760559 h 2.458541 v -7.5211 h -2.458541 v 3.760541" /><path
       id="path32"
       style="display:none;fill:#000000;fill-opacity:1;fill-rule:nonzero;stroke:none;stroke-width:0.109053"
       d="M 50.266007,96.934509 V 107.56712 H 52.72455 V 86.30266 h -2.458543 v 10.63185" /><path
       id="path33"
       style="display:none;fill:#000000;fill-opacity:1;fill-rule:nonzero;stroke:none;stroke-width:0.109053"
       d="m 54.620423,96.934886 v 16.747224 h 2.458543 V 80.187671 h -2.458543 v 16.747215" /><path
       id="path34"
       style="display:none;fill:#000000;fill-opacity:1;fill-rule:nonzero;stroke:none;stroke-width:0.109053"
       d="m 58.974839,96.934889 v 8.373991 h 2.458543 V 88.560901 h -2.458543 v 8.373988" /><path
       id="path35"
       style="display:none;fill:#000000;fill-opacity:1;fill-rule:nonzero;stroke:none;stroke-width:0.109053"
       d="m 63.329254,96.934892 v 2.003584 h 2.458677 v -4.007171 h -2.458677 v 2.003587" /><path
       id="path36"
       style="display:none;fill:#000000;fill-opacity:1;fill-rule:nonzero;stroke:none;stroke-width:0.109053"
       d="m 67.683804,96.934883 v 9.837757 h 2.458543 v -19.6755 h -2.458543 v 9.837743" /><path
       id="path37"
       style="display:none;fill:#000000;fill-opacity:1;fill-rule:nonzero;stroke:none;stroke-width:0.128468"
       d="m 132.99879,96.934888 v 13.652502 h 2.45856 V 83.282391 h -2.45856 v 13.652497" /><path
       id="path38"
       style="display:none;fill:#000000;fill-opacity:1;fill-rule:nonzero;stroke:none;stroke-width:0.103129"
       d="m 119.93602,96.93489 v 8.79806 h 2.45855 V 88.13683 h -2.45855 v 8.79806" /><path
       id="path39"
       style="display:none;fill:#000000;fill-opacity:1;fill-rule:nonzero;stroke:none;stroke-width:0.0882392"
       d="m 141.70715,96.934887 v 6.440863 h 2.45855 V 90.49403 h -2.45855 v 6.440857" /><path
       id="path40"
       style="display:none;fill:#000000;fill-opacity:1;fill-rule:nonzero;stroke:none;stroke-width:0.109053"
       d="m 72.03822,96.934883 v 15.670607 h 2.458545 V 81.264289 H 72.03822 v 15.670594" /><path
       id="path41"
       style="display:none;fill:#000000;fill-opacity:1;fill-rule:nonzero;stroke:none;stroke-width:0.109053"
       d="m 76.392637,96.935274 v 19.533456 h 2.458544 V 77.401049 h -2.458544 v 19.534225" /><path
       id="path42"
       style="display:none;fill:#000000;fill-opacity:1;fill-rule:nonzero;stroke:none;stroke-width:0.109053"
       d="m 80.747054,96.934892 v 6.203178 h 2.458719 V 90.731709 h -2.458719 v 6.203183" /><path
       id="path43"
       style="display:none;fill:#000000;fill-opacity:1;fill-rule:nonzero;stroke:none;stroke-width:0.103394"
       d="m 115.58142,96.934894 v 5.576066 h 2.45873 V 91.35882 h -2.45873 v 5.576072" /><path
       id="path44"
       style="display:none;fill:#000000;fill-opacity:1;fill-rule:nonzero;stroke:none;stroke-width:0.109053"
       d="m 85.101646,96.934877 v 3.101613 h 2.458543 v -6.203198 h -2.458543 v 3.101585" /><path
       id="path45"
       style="display:none;fill:#000000;fill-opacity:1;fill-rule:nonzero;stroke:none;stroke-width:0.109053"
       d="m 89.456061,96.934886 v 0.790291 h 2.457922 v -1.580573 h -2.457922 v 0.790282" /><path
       id="path46"
       style="display:none;fill:#000000;fill-opacity:1;fill-rule:nonzero;stroke:none;stroke-width:0.109053"
       d="m 93.809856,96.934892 v 6.203178 h 2.458551 V 90.731709 h -2.458551 v 6.203183" /><path
       id="path47"
       style="display:none;fill:#000000;fill-opacity:1;fill-rule:nonzero;stroke:none;stroke-width:0.109053"
       d="m 98.16428,96.935272 v 10.233268 h 2.45805 v -20.4673 h -2.45805 v 10.234032" /><path
       id="path48"
       style="display:none;fill:#000000;fill-opacity:1;fill-rule:nonzero;stroke:none;stroke-width:0.109053"
       d="m 137.35322,96.935271 v 10.233269 h 2.45806 v -20.4673 h -2.45806 v 10.234031" /><path
       id="path49"
       style="display:none;fill:#000000;fill-opacity:1;fill-rule:nonzero;stroke:none;stroke-width:0.116041"
       d="m 124.29044,96.935314 v 11.586876 h 2.45807 V 85.347591 h -2.45807 v 11.587723" /><path
       id="path50"
       style="display:none;fill:#000000;fill-opacity:1;fill-rule:nonzero;stroke:none;stroke-width:0.109053"
       d="m 102.5182,96.934883 v 15.670607 h 2.45853 V 81.264289 h -2.45853 v 15.670594" /><path
       id="path51"
       style="display:none;fill:#000000;fill-opacity:1;fill-rule:nonzero;stroke:none;stroke-width:0.109053"
       d="m 106.8726,88.560901 v 16.747979 h 2.45854 V 88.560901 h -2.45854" /><path
       id="path52"
       style="display:none;fill:#000000;fill-opacity:1;fill-rule:nonzero;stroke:none;stroke-width:0.109053"
       d="m 111.22702,96.934881 v 3.760559 h 2.45853 v -7.5211 h -2.45853 v 3.760541" /><path
       id="path53"
       style="display:none;fill:#000000;fill-opacity:1;fill-rule:nonzero;stroke:none;stroke-width:0.109053"
       d="m 146.06158,94.474695 v 4.920391 h 2.45853 v -4.920391 h -2.45853" /><path
       id="path54"
       style="display:none;fill:#000000;fill-opacity:1;fill-rule:nonzero;stroke:none;stroke-width:0.109053"
       d="m 150.41598,96.934891 v 1.546217 h 2.45855 v -3.092434 h -2.45855 v 1.546217" /><path
       id="path55"
       style="display:none;fill:#000000;fill-opacity:1;fill-rule:nonzero;stroke:none;stroke-width:0.428477"
       d="m 128.64439,96.934885 v 7.885845 h 2.45853 V 89.049049 h -2.45853 v 7.885836" /><text
       xml:space="preserve"
       style="font-size:10.5833px;font-family:Dashboard;-inkscape-font-specification:Dashboard;text-align:start;writing-mode:lr-tb;direction:ltr;text-anchor:start;display:inline;fill:#000000;fill-opacity:1;stroke-width:0.264583"
       x="37.019009"
       y="92.159294"
       id="text29-8"><tspan
         id="tspan29-2"
         style="font-size:10.5833px;stroke-width:0.264583"
         x="37.019009"
         y="92.159294">361 occasions</tspan></text><text
       xml:space="preserve"
       style="font-size:10.5833px;font-family:Dashboard;-inkscape-font-specification:Dashboard;text-align:start;writing-mode:lr-tb;direction:ltr;text-anchor:start;display:inline;fill:#000000;fill-opacity:1;stroke-width:0.264583"
       x="36.51062"
       y="108.10445"
       id="text29-8-7"><tspan
         id="tspan29-2-1"
         style="font-size:10.5833px;stroke-width:0.264583"
         x="36.51062"
         y="108.10445">d'apprendre ensemble</tspan></text><path
       d="m 38.344115,52.971139 h -6.349996 v -5.884328 l 14.816656,-1.269999 v 25.315314 h -8.46666 z m 28.786677,-7.154327 q 6.307662,0 9.440326,3.132664 3.174998,3.132664 3.174998,8.97466 v 1.481665 q 0,5.841996 -3.259664,9.016994 -3.217331,3.132664 -9.35566,3.132664 H 65.31046 q -3.682997,0 -6.857995,-0.423333 -3.174997,-0.381 -4.148663,-0.846666 v -6.349995 q 1.523999,0.338666 4.36033,0.592666 2.878664,0.254 6.646328,0.254 3.047998,0 4.61433,-0.804333 1.608666,-0.846666 1.608666,-2.116665 0,-0.719666 -0.550333,-0.719666 -0.211667,0 -0.338667,0.04233 -3.344331,0.888999 -7.027328,0.888999 -5.714996,0 -8.297327,-1.693332 -2.582331,-1.693332 -2.582331,-5.545662 0,-2.709332 1.523999,-4.74133 1.523998,-2.031998 4.36033,-3.132664 2.878664,-1.142999 6.688661,-1.142999 z m 0.04233,10.752658 q 4.36033,0 4.36033,-1.354666 0,-1.058332 -1.100666,-1.820331 Q 69.33212,52.59014 67.130788,52.59014 H 65.35279 q -2.031999,0 -3.132665,0.592666 -1.058332,0.550333 -1.058332,1.481666 0,1.904998 4.148663,1.904998 z m 22.859948,5.672663 q 0.169334,-0.169334 0.169334,-0.423333 0,-0.254 -0.169334,-0.423334 l -7.74699,-9.228659 h 8.97466 l 3.471331,5.291662 q 0.254,0.423333 0.634999,0.423333 0.381,0 0.635,-0.423333 l 3.555997,-5.291662 h 9.016993 l -7.61999,9.228659 q -0.16934,0.254 -0.16934,0.423334 0,0.169333 0.16934,0.423333 l 7.61999,8.889993 H 99.515734 L 96.00207,66.05213 q -0.254,-0.381 -0.635,-0.381 -0.380999,0 -0.634999,0.381 -0.296333,0.465666 -3.471331,5.079996 h -8.97466 z m 26.16201,-9.270994 h -6.34999 v -5.884328 l 14.81665,-1.269999 v 25.315314 h -8.46666 z m 28.78668,-7.154327 q 6.30766,0 9.44033,3.132664 3.17499,3.132664 3.17499,8.97466 v 1.481665 q 0,5.841996 -3.25966,9.016994 -3.21733,3.132664 -9.35566,3.132664 h -1.82033 q -3.683,0 -6.858,-0.423333 -3.17499,-0.381 -4.14866,-0.846666 v -6.349995 q 1.524,0.338666 4.36033,0.592666 2.87866,0.254 6.64633,0.254 3.048,0 4.61433,-0.804333 1.60866,-0.846666 1.60866,-2.116665 0,-0.719666 -0.55033,-0.719666 -0.21167,0 -0.33867,0.04233 -3.34433,0.888999 -7.02732,0.888999 -5.715,0 -8.29733,-1.693332 -2.58233,-1.693332 -2.58233,-5.545662 0,-2.709332 1.524,-4.74133 1.52399,-2.031998 4.36033,-3.132664 2.87866,-1.142999 6.68866,-1.142999 z m 0.0423,10.752658 q 4.36033,0 4.36033,-1.354666 0,-1.058332 -1.10066,-1.820331 -1.10067,-0.804333 -3.302,-0.804333 h -1.778 q -2.032,0 -3.13266,0.592666 -1.05834,0.550333 -1.05834,1.481666 0,1.904998 4.14867,1.904998 z"
       id="path56"
       style="font-size:42.3333px;font-family:Dashboard;-inkscape-font-specification:Dashboard;stroke-width:0.264583"
       aria-label="19x19" /></g><g
     id="g29"
     style="display:none"
     transform="translate(-9.8208989,-40.111325)"><text
       xml:space="preserve"
       style="font-size:42.3333px;font-family:Dashboard;-inkscape-font-specification:Dashboard;text-align:start;writing-mode:lr-tb;direction:ltr;text-anchor:start;fill:#000000;stroke-width:0.264583"
       x="31.147453"
       y="71.132126"
       id="text3"><tspan
         id="tspan3"
         style="font-size:42.3333px;stroke-width:0.264583"
         x="31.147453"
         y="71.132126">19x19</tspan></text><circle
       id="circle3"
       style="color:#000000;display:inline;fill:#000000;stroke:#000000;stroke-width:1.28631"
       cx="23.372046"
       cy="97.074715"
       r="6.4315605" /><rect
       style="fill:#000000;stroke-width:0.112015"
       id="rect3"
       width="2"
       height="88.673019"
       x="22.326647"
       y="40.111324" /><rect
       style="fill:#000000;stroke-width:0.148435"
       id="rect4"
       width="2"
       height="155.70718"
       x="-97.934891"
       y="9.820899"
       transform="rotate(-90)" /><path
       id="path4"
       style="fill:#000000;fill-opacity:1;fill-rule:nonzero;stroke:none;stroke-width:0.109053"
       d="m 41.55718,96.93489 v 1.531708 h 2.458541 V 95.403183 H 41.55718 v 1.531707" /><path
       id="path5"
       style="fill:#000000;fill-opacity:1;fill-rule:nonzero;stroke:none;stroke-width:0.109053"
       d="m 45.911594,96.934881 v 3.760559 h 2.458541 v -7.5211 h -2.458541 v 3.760541" /><path
       id="path6"
       style="fill:#000000;fill-opacity:1;fill-rule:nonzero;stroke:none;stroke-width:0.109053"
       d="M 50.266007,96.934509 V 107.56712 H 52.72455 V 86.30266 h -2.458543 v 10.63185" /><path
       id="path7"
       style="fill:#000000;fill-opacity:1;fill-rule:nonzero;stroke:none;stroke-width:0.109053"
       d="m 54.620423,96.934886 v 16.747224 h 2.458543 V 80.187671 h -2.458543 v 16.747215" /><path
       id="path8"
       style="fill:#000000;fill-opacity:1;fill-rule:nonzero;stroke:none;stroke-width:0.109053"
       d="m 58.974839,96.934889 v 8.373991 h 2.458543 V 88.560901 h -2.458543 v 8.373988" /><path
       id="path9"
       style="fill:#000000;fill-opacity:1;fill-rule:nonzero;stroke:none;stroke-width:0.109053"
       d="m 63.329254,96.934892 v 2.003584 h 2.458677 v -4.007171 h -2.458677 v 2.003587" /><path
       id="path10"
       style="fill:#000000;fill-opacity:1;fill-rule:nonzero;stroke:none;stroke-width:0.109053"
       d="m 67.683804,96.934883 v 9.837757 h 2.458543 v -19.6755 h -2.458543 v 9.837743" /><path
       id="path11"
       style="fill:#000000;fill-opacity:1;fill-rule:nonzero;stroke:none;stroke-width:0.128468"
       d="m 132.99879,96.934888 v 13.652502 h 2.45856 V 83.282391 h -2.45856 v 13.652497" /><path
       id="path12"
       style="fill:#000000;fill-opacity:1;fill-rule:nonzero;stroke:none;stroke-width:0.103129"
       d="m 119.93602,96.93489 v 8.79806 h 2.45855 V 88.13683 h -2.45855 v 8.79806" /><path
       id="path13"
       style="fill:#000000;fill-opacity:1;fill-rule:nonzero;stroke:none;stroke-width:0.0882392"
       d="m 141.70715,96.934887 v 6.440863 h 2.45855 V 90.49403 h -2.45855 v 6.440857" /><path
       id="path14"
       style="fill:#000000;fill-opacity:1;fill-rule:nonzero;stroke:none;stroke-width:0.109053"
       d="m 72.03822,96.934883 v 15.670607 h 2.458545 V 81.264289 H 72.03822 v 15.670594" /><path
       id="path15"
       style="fill:#000000;fill-opacity:1;fill-rule:nonzero;stroke:none;stroke-width:0.109053"
       d="m 76.392637,96.935274 v 19.533456 h 2.458544 V 77.401049 h -2.458544 v 19.534225" /><path
       id="path16"
       style="fill:#000000;fill-opacity:1;fill-rule:nonzero;stroke:none;stroke-width:0.109053"
       d="m 80.747054,96.934892 v 6.203178 h 2.458719 V 90.731709 h -2.458719 v 6.203183" /><path
       id="path17"
       style="fill:#000000;fill-opacity:1;fill-rule:nonzero;stroke:none;stroke-width:0.103394"
       d="m 115.58142,96.934894 v 5.576066 h 2.45873 V 91.35882 h -2.45873 v 5.576072" /><path
       id="path18"
       style="fill:#000000;fill-opacity:1;fill-rule:nonzero;stroke:none;stroke-width:0.109053"
       d="m 85.101646,96.934877 v 3.101613 h 2.458543 v -6.203198 h -2.458543 v 3.101585" /><path
       id="path19"
       style="fill:#000000;fill-opacity:1;fill-rule:nonzero;stroke:none;stroke-width:0.109053"
       d="m 89.456061,96.934886 v 0.790291 h 2.457922 v -1.580573 h -2.457922 v 0.790282" /><path
       id="path20"
       style="fill:#000000;fill-opacity:1;fill-rule:nonzero;stroke:none;stroke-width:0.109053"
       d="m 93.809856,96.934892 v 6.203178 h 2.458551 V 90.731709 h -2.458551 v 6.203183" /><path
       id="path21"
       style="fill:#000000;fill-opacity:1;fill-rule:nonzero;stroke:none;stroke-width:0.109053"
       d="m 98.16428,96.935272 v 10.233268 h 2.45805 v -20.4673 h -2.45805 v 10.234032" /><path
       id="path22"
       style="fill:#000000;fill-opacity:1;fill-rule:nonzero;stroke:none;stroke-width:0.109053"
       d="m 137.35322,96.935271 v 10.233269 h 2.45806 v -20.4673 h -2.45806 v 10.234031" /><path
       id="path23"
       style="fill:#000000;fill-opacity:1;fill-rule:nonzero;stroke:none;stroke-width:0.116041"
       d="m 124.29044,96.935314 v 11.586876 h 2.45807 V 85.347591 h -2.45807 v 11.587723" /><path
       id="path24"
       style="fill:#000000;fill-opacity:1;fill-rule:nonzero;stroke:none;stroke-width:0.109053"
       d="m 102.5182,96.934883 v 15.670607 h 2.45853 V 81.264289 h -2.45853 v 15.670594" /><path
       id="path25"
       style="fill:#000000;fill-opacity:1;fill-rule:nonzero;stroke:none;stroke-width:0.109053"
       d="m 106.8726,88.560901 v 16.747979 h 2.45854 V 88.560901 h -2.45854" /><path
       id="path26"
       style="fill:#000000;fill-opacity:1;fill-rule:nonzero;stroke:none;stroke-width:0.109053"
       d="m 111.22702,96.934881 v 3.760559 h 2.45853 v -7.5211 h -2.45853 v 3.760541" /><path
       id="path27"
       style="fill:#000000;fill-opacity:1;fill-rule:nonzero;stroke:none;stroke-width:0.109053"
       d="m 146.06158,94.474695 v 4.920391 h 2.45853 v -4.920391 h -2.45853" /><path
       id="path28"
       style="fill:#000000;fill-opacity:1;fill-rule:nonzero;stroke:none;stroke-width:0.109053"
       d="m 150.41598,96.934891 v 1.546217 h 2.45855 v -3.092434 h -2.45855 v 1.546217" /><path
       id="path29"
       style="fill:#000000;fill-opacity:1;fill-rule:nonzero;stroke:none;stroke-width:0.428477"
       d="m 128.64439,96.934885 v 7.885845 h 2.45853 V 89.049049 h -2.45853 v 7.885836" /></g><g
     id="g86"
     style="display:none"
     transform="translate(-9.8208989,-40.111325)"><circle
       id="circle59"
       style="color:#000000;display:inline;fill:#000000;stroke:#000000;stroke-width:1.28631"
       cx="23.372046"
       cy="97.074715"
       r="6.4315605" /><rect
       style="fill:#000000;stroke-width:0.104003"
       id="rect59"
       width="2"
       height="76.442223"
       x="22.326647"
       y="40.111324" /><rect
       style="fill:#000000;stroke-width:0.148435"
       id="rect60"
       width="2"
       height="155.70718"
       x="-97.934891"
       y="9.820899"
       transform="rotate(-90)" /><path
       id="path60"
       style="display:none;fill:#000000;fill-opacity:1;fill-rule:nonzero;stroke:none;stroke-width:0.109053"
       d="m 41.55718,96.93489 v 1.531708 h 2.458541 V 95.403183 H 41.55718 v 1.531707" /><path
       id="path61"
       style="display:none;fill:#000000;fill-opacity:1;fill-rule:nonzero;stroke:none;stroke-width:0.109053"
       d="m 45.911594,96.934881 v 3.760559 h 2.458541 v -7.5211 h -2.458541 v 3.760541" /><path
       id="path62"
       style="display:none;fill:#000000;fill-opacity:1;fill-rule:nonzero;stroke:none;stroke-width:0.109053"
       d="M 50.266007,96.934509 V 107.56712 H 52.72455 V 86.30266 h -2.458543 v 10.63185" /><path
       id="path63"
       style="display:none;fill:#000000;fill-opacity:1;fill-rule:nonzero;stroke:none;stroke-width:0.109053"
       d="m 54.620423,96.934886 v 16.747224 h 2.458543 V 80.187671 h -2.458543 v 16.747215" /><path
       id="path64"
       style="display:none;fill:#000000;fill-opacity:1;fill-rule:nonzero;stroke:none;stroke-width:0.109053"
       d="m 58.974839,96.934889 v 8.373991 h 2.458543 V 88.560901 h -2.458543 v 8.373988" /><path
       id="path65"
       style="display:none;fill:#000000;fill-opacity:1;fill-rule:nonzero;stroke:none;stroke-width:0.109053"
       d="m 63.329254,96.934892 v 2.003584 h 2.458677 v -4.007171 h -2.458677 v 2.003587" /><path
       id="path66"
       style="display:none;fill:#000000;fill-opacity:1;fill-rule:nonzero;stroke:none;stroke-width:0.109053"
       d="m 67.683804,96.934883 v 9.837757 h 2.458543 v -19.6755 h -2.458543 v 9.837743" /><path
       id="path67"
       style="display:none;fill:#000000;fill-opacity:1;fill-rule:nonzero;stroke:none;stroke-width:0.128468"
       d="m 132.99879,96.934888 v 13.652502 h 2.45856 V 83.282391 h -2.45856 v 13.652497" /><path
       id="path68"
       style="display:none;fill:#000000;fill-opacity:1;fill-rule:nonzero;stroke:none;stroke-width:0.103129"
       d="m 119.93602,96.93489 v 8.79806 h 2.45855 V 88.13683 h -2.45855 v 8.79806" /><path
       id="path69"
       style="display:none;fill:#000000;fill-opacity:1;fill-rule:nonzero;stroke:none;stroke-width:0.0882392"
       d="m 141.70715,96.934887 v 6.440863 h 2.45855 V 90.49403 h -2.45855 v 6.440857" /><path
       id="path70"
       style="display:none;fill:#000000;fill-opacity:1;fill-rule:nonzero;stroke:none;stroke-width:0.109053"
       d="m 72.03822,96.934883 v 15.670607 h 2.458545 V 81.264289 H 72.03822 v 15.670594" /><path
       id="path71"
       style="display:none;fill:#000000;fill-opacity:1;fill-rule:nonzero;stroke:none;stroke-width:0.109053"
       d="m 76.392637,96.935274 v 19.533456 h 2.458544 V 77.401049 h -2.458544 v 19.534225" /><path
       id="path72"
       style="display:none;fill:#000000;fill-opacity:1;fill-rule:nonzero;stroke:none;stroke-width:0.109053"
       d="m 80.747054,96.934892 v 6.203178 h 2.458719 V 90.731709 h -2.458719 v 6.203183" /><path
       id="path73"
       style="display:none;fill:#000000;fill-opacity:1;fill-rule:nonzero;stroke:none;stroke-width:0.103394"
       d="m 115.58142,96.934894 v 5.576066 h 2.45873 V 91.35882 h -2.45873 v 5.576072" /><path
       id="path74"
       style="display:none;fill:#000000;fill-opacity:1;fill-rule:nonzero;stroke:none;stroke-width:0.109053"
       d="m 85.101646,96.934877 v 3.101613 h 2.458543 v -6.203198 h -2.458543 v 3.101585" /><path
       id="path75"
       style="display:none;fill:#000000;fill-opacity:1;fill-rule:nonzero;stroke:none;stroke-width:0.109053"
       d="m 89.456061,96.934886 v 0.790291 h 2.457922 v -1.580573 h -2.457922 v 0.790282" /><path
       id="path76"
       style="display:none;fill:#000000;fill-opacity:1;fill-rule:nonzero;stroke:none;stroke-width:0.109053"
       d="m 93.809856,96.934892 v 6.203178 h 2.458551 V 90.731709 h -2.458551 v 6.203183" /><path
       id="path77"
       style="display:none;fill:#000000;fill-opacity:1;fill-rule:nonzero;stroke:none;stroke-width:0.109053"
       d="m 98.16428,96.935272 v 10.233268 h 2.45805 v -20.4673 h -2.45805 v 10.234032" /><path
       id="path78"
       style="display:none;fill:#000000;fill-opacity:1;fill-rule:nonzero;stroke:none;stroke-width:0.109053"
       d="m 137.35322,96.935271 v 10.233269 h 2.45806 v -20.4673 h -2.45806 v 10.234031" /><path
       id="path79"
       style="display:none;fill:#000000;fill-opacity:1;fill-rule:nonzero;stroke:none;stroke-width:0.116041"
       d="m 124.29044,96.935314 v 11.586876 h 2.45807 V 85.347591 h -2.45807 v 11.587723" /><path
       id="path80"
       style="display:none;fill:#000000;fill-opacity:1;fill-rule:nonzero;stroke:none;stroke-width:0.109053"
       d="m 102.5182,96.934883 v 15.670607 h 2.45853 V 81.264289 h -2.45853 v 15.670594" /><path
       id="path81"
       style="display:none;fill:#000000;fill-opacity:1;fill-rule:nonzero;stroke:none;stroke-width:0.109053"
       d="m 106.8726,88.560901 v 16.747979 h 2.45854 V 88.560901 h -2.45854" /><path
       id="path82"
       style="display:none;fill:#000000;fill-opacity:1;fill-rule:nonzero;stroke:none;stroke-width:0.109053"
       d="m 111.22702,96.934881 v 3.760559 h 2.45853 v -7.5211 h -2.45853 v 3.760541" /><path
       id="path83"
       style="display:none;fill:#000000;fill-opacity:1;fill-rule:nonzero;stroke:none;stroke-width:0.109053"
       d="m 146.06158,94.474695 v 4.920391 h 2.45853 v -4.920391 h -2.45853" /><path
       id="path84"
       style="display:none;fill:#000000;fill-opacity:1;fill-rule:nonzero;stroke:none;stroke-width:0.109053"
       d="m 150.41598,96.934891 v 1.546217 h 2.45855 v -3.092434 h -2.45855 v 1.546217" /><path
       id="path85"
       style="display:none;fill:#000000;fill-opacity:1;fill-rule:nonzero;stroke:none;stroke-width:0.428477"
       d="m 128.64439,96.934885 v 7.885845 h 2.45853 V 89.049049 h -2.45853 v 7.885836" /><path
       style="font-size:10.5833px;font-family:Dashboard;-inkscape-font-specification:Dashboard;stroke-width:0.264583"
       d="m 114.50361,79.380156 q 1.06892,0 1.68275,0.137583 0.62441,0.137583 0.889,0.423332 0.26458,0.285749 0.26458,0.751414 0,0.497415 -0.21167,0.836081 -0.20108,0.338666 -0.8255,0.550332 -0.62441,0.211666 -1.79916,0.211666 h -0.22225 q -0.91016,0 -1.72507,-0.07408 -0.80433,-0.07408 -1.03717,-0.148166 V 80.59724 q 0.17992,0.05292 1.19592,0.137582 1.01599,0.07408 1.55574,0.07408 h 0.23283 q 0.83608,0 0.83608,-0.306916 0,-0.275166 -0.84666,-0.275166 h -0.64558 q -1.30175,0 -1.87325,-0.306916 -0.56091,-0.306915 -0.56091,-1.037163 0,-0.761998 0.68791,-1.15358 0.68792,-0.391582 2.16958,-0.391582 h 0.23283 q 0.762,0 1.48167,0.07408 0.73024,0.07408 1.02658,0.137583 v 1.481662 q -0.33867,-0.05292 -1.17475,-0.126999 -0.83608,-0.08467 -1.3335,-0.08467 h -0.23283 q -0.53975,0 -0.75141,0.0635 -0.20109,0.05292 -0.20109,0.190499 0,0.15875 0.20109,0.232833 0.20108,0.07408 0.75141,0.07408 z"
       id="path118" /><path
       style="font-size:10.5833px;font-family:Dashboard;-inkscape-font-specification:Dashboard;stroke-width:0.264583"
       d="m 108.20655,77.337579 q 2.14841,0 2.14841,2.18016 v 2.666992 h -1.90499 v -2.666992 q 0,-0.380999 -0.15875,-0.539748 -0.15875,-0.15875 -0.51858,-0.15875 h -0.14817 q -0.58208,0 -0.8255,0.232833 -0.24341,0.232832 -0.24341,0.761997 v 2.37066 h -1.905 v -4.741319 h 1.905 v 0.275166 q 0.53974,-0.380999 1.50282,-0.380999 z"
       id="path117" /><path
       style="font-size:10.5833px;font-family:Dashboard;-inkscape-font-specification:Dashboard;stroke-width:0.264583"
       d="m 100.56541,82.290564 q -1.51341,0 -2.211907,-0.645582 -0.687915,-0.656164 -0.687915,-1.746244 v -0.169333 q 0,-1.068913 0.698498,-1.725078 0.709081,-0.666748 2.201324,-0.666748 h 0.14817 q 1.48166,0 2.18016,0.666748 0.6985,0.656165 0.6985,1.725078 v 0.169333 q 0,1.09008 -0.6985,1.746244 -0.68792,0.645582 -2.18016,0.645582 z m 0.14817,-1.481662 q 0.45508,0 0.70908,-0.232833 0.26458,-0.232833 0.26458,-0.677331 v -0.169333 q 0,-0.423332 -0.26458,-0.666748 -0.26458,-0.243416 -0.70908,-0.243416 h -0.14817 q -0.4445,0 -0.719662,0.243416 -0.275166,0.243416 -0.275166,0.666748 v 0.169333 q 0,0.455082 0.264583,0.687914 0.275165,0.22225 0.730245,0.22225 z"
       id="path116" /><path
       style="font-size:10.5833px;font-family:Dashboard;-inkscape-font-specification:Dashboard;stroke-width:0.264583"
       d="m 94.575267,77.443412 h 1.904994 v 4.741319 h -1.904994 z"
       id="path115" /><path
       style="font-size:10.5833px;font-family:Dashboard;-inkscape-font-specification:Dashboard;stroke-width:0.264583"
       d="m 95.527764,76.998914 q -1.068913,0 -1.068913,-0.910164 0,-0.497415 0.253999,-0.698498 0.264582,-0.201083 0.814914,-0.201083 0.571498,0 0.825497,0.201083 0.253999,0.201083 0.253999,0.698498 0,0.910164 -1.079496,0.910164 z"
       id="path114" /><path
       style="font-size:10.5833px;font-family:Dashboard;-inkscape-font-specification:Dashboard;stroke-width:0.264583"
       d="m 90.564198,79.380156 q 1.068914,0 1.682745,0.137583 0.624415,0.137583 0.888997,0.423332 0.264583,0.285749 0.264583,0.751414 0,0.497415 -0.211666,0.836081 -0.201083,0.338666 -0.825498,0.550332 -0.624414,0.211666 -1.799161,0.211666 h -0.222249 q -0.910164,0 -1.725078,-0.07408 -0.804331,-0.07408 -1.037163,-0.148166 V 80.59724 q 0.179916,0.05292 1.195913,0.137582 1.015996,0.07408 1.555745,0.07408 h 0.232832 q 0.836081,0 0.836081,-0.306916 0,-0.275166 -0.846664,-0.275166 h -0.645581 q -1.301746,0 -1.873244,-0.306916 -0.560915,-0.306915 -0.560915,-1.037163 0,-0.761998 0.687914,-1.15358 0.687915,-0.391582 2.169577,-0.391582 h 0.232832 q 0.761998,0 1.481662,0.07408 0.730248,0.07408 1.02658,0.137583 v 1.481662 q -0.338665,-0.05292 -1.174746,-0.126999 -0.836081,-0.08467 -1.333496,-0.08467 h -0.232832 q -0.539749,0 -0.751415,0.0635 -0.201082,0.05292 -0.201082,0.190499 0,0.15875 0.201082,0.232833 0.201083,0.07408 0.751415,0.07408 z"
       id="path113" /><path
       style="font-size:10.5833px;font-family:Dashboard;-inkscape-font-specification:Dashboard;stroke-width:0.264583"
       d="m 83.769713,77.337579 q 1.344079,0 1.98966,0.507999 0.656165,0.497415 0.656165,1.672161 v 2.666992 h -1.904994 v -0.328083 q -0.243416,0.169333 -0.783164,0.306916 -0.539748,0.127 -1.344079,0.127 -2.02141,0 -2.02141,-1.513412 0,-0.761998 0.539748,-1.09008 0.550331,-0.338666 1.703911,-0.338666 h 0.116416 q 0.550332,0 1.05833,0.09525 0.518582,0.09525 0.730248,0.179916 v -0.211666 q 0,-0.317499 -0.243416,-0.455082 -0.243416,-0.137583 -0.920747,-0.137583 -0.709081,0 -1.481662,0.08467 -0.761998,0.07408 -0.96308,0.126999 v -1.375829 q 0.391582,-0.116416 1.037163,-0.211666 0.656165,-0.105833 1.407579,-0.105833 z m -0.444499,3.481906 q 0.370416,0 0.740831,-0.0635 0.370416,-0.07408 0.444499,-0.148166 -0.127,-0.116416 -0.571498,-0.232833 -0.433916,-0.116416 -1.037164,-0.116416 -0.582081,0 -0.582081,0.296332 0,0.264583 0.582081,0.264583 z"
       id="path112" /><path
       style="font-size:10.5833px;font-family:Dashboard;-inkscape-font-specification:Dashboard;stroke-width:0.264583"
       d="m 76.700063,82.290564 q -1.513411,0 -2.211909,-0.645582 -0.687915,-0.656164 -0.687915,-1.746244 v -0.169333 q 0,-1.068913 0.698498,-1.725078 0.709081,-0.666748 2.201326,-0.666748 h 0.148167 q 0.941913,0 1.513411,0.169333 0.582082,0.15875 0.836081,0.359832 v 1.375829 q -0.455082,-0.169333 -0.984247,-0.296332 -0.518581,-0.127 -1.365245,-0.127 -1.142997,0 -1.142997,0.910164 v 0.169333 q 0,0.465665 0.275166,0.687914 0.275166,0.22225 0.867831,0.22225 0.709081,0 1.312329,-0.127 0.613831,-0.127 1.037163,-0.296332 v 1.375829 q -0.698498,0.529165 -2.349492,0.529165 z"
       id="path111" /><path
       style="font-size:10.5833px;font-family:Dashboard;-inkscape-font-specification:Dashboard;stroke-width:0.264583"
       d="m 70.244243,82.290564 q -1.513411,0 -2.211909,-0.645582 -0.687915,-0.656164 -0.687915,-1.746244 v -0.169333 q 0,-1.068913 0.698498,-1.725078 0.709081,-0.666748 2.201326,-0.666748 h 0.148167 q 0.941913,0 1.513411,0.169333 0.582082,0.15875 0.836081,0.359832 v 1.375829 q -0.455082,-0.169333 -0.984247,-0.296332 -0.518581,-0.127 -1.365245,-0.127 -1.142997,0 -1.142997,0.910164 v 0.169333 q 0,0.465665 0.275166,0.687914 0.275166,0.22225 0.867831,0.22225 0.709081,0 1.312329,-0.127 0.613831,-0.127 1.037163,-0.296332 v 1.375829 q -0.698498,0.529165 -2.349492,0.529165 z"
       id="path110" /><path
       style="font-size:10.5833px;font-family:Dashboard;-inkscape-font-specification:Dashboard;stroke-width:0.264583"
       d="m 63.470937,82.290564 q -1.513411,0 -2.211909,-0.645582 -0.687915,-0.656164 -0.687915,-1.746244 v -0.169333 q 0,-1.068913 0.698498,-1.725078 0.709081,-0.666748 2.201326,-0.666748 h 0.148167 q 1.481662,0 2.180159,0.666748 0.698498,0.656165 0.698498,1.725078 v 0.169333 q 0,1.09008 -0.698498,1.746244 -0.687914,0.645582 -2.180159,0.645582 z m 0.148167,-1.481662 q 0.455082,0 0.709081,-0.232833 0.264582,-0.232833 0.264582,-0.677331 v -0.169333 q 0,-0.423332 -0.264582,-0.666748 -0.264583,-0.243416 -0.709081,-0.243416 h -0.148167 q -0.444498,0 -0.719664,0.243416 -0.275166,0.243416 -0.275166,0.666748 v 0.169333 q 0,0.455082 0.264583,0.687914 0.275166,0.22225 0.730247,0.22225 z"
       id="path109" /><path
       style="font-size:10.5833px;font-family:Dashboard;-inkscape-font-specification:Dashboard;stroke-width:0.264583"
       d="m 54.009467,77.644495 h -1.587495 v -1.471079 l 3.704155,-0.317499 v 6.328814 h -2.11666 z"
       id="path108" /><path
       style="font-size:10.5833px;font-family:Dashboard;-inkscape-font-specification:Dashboard;stroke-width:0.264583"
       d="m 48.855409,78.215993 q 1.396996,0 2.05316,0.486832 0.666748,0.486832 0.666748,1.333496 0,0.677331 -0.380999,1.185329 -0.380999,0.507999 -1.100663,0.793748 -0.709081,0.275166 -1.661578,0.275166 h -0.455082 q -1.576912,0 -2.370659,-0.783165 -0.783164,-0.783164 -0.783164,-2.243659 v -0.370416 q 0,-1.460495 0.804331,-2.243659 0.814914,-0.793748 2.349492,-0.793748 h 0.455082 q 0.96308,0 1.725078,0.105833 0.761997,0.105833 1.02658,0.211666 v 1.587495 q -1.407579,-0.211666 -2.751658,-0.211666 -0.793747,0 -1.174746,0.253999 -0.380999,0.254 -0.380999,0.592665 0,0.105833 0.0635,0.105833 0.03175,0 0.158749,-0.05292 0.1905,-0.08467 0.709081,-0.15875 0.529165,-0.07408 1.047747,-0.07408 z m -0.433915,2.381243 q 0.507998,0 0.772581,-0.137583 0.275165,-0.148167 0.275165,-0.380999 0,-0.211666 -0.285749,-0.338666 -0.285749,-0.137583 -0.751414,-0.137583 h -0.455082 q -0.592665,0 -0.846664,0.08467 -0.253999,0.07408 -0.253999,0.253999 0,0.264582 0.275166,0.465665 0.275166,0.1905 0.825497,0.1905 z"
       id="path107" /><path
       style="font-size:10.5833px;font-family:Dashboard;-inkscape-font-specification:Dashboard;stroke-width:0.264583"
       d="m 39.976012,82.290564 q -0.571498,0 -1.121829,-0.0635 -0.539749,-0.05292 -0.910164,-0.127 -0.359832,-0.08467 -0.423332,-0.126999 v -1.576912 q 0.09525,0.01058 0.476248,0.07408 0.391582,0.0635 0.899581,0.105833 0.507998,0.03175 1.079496,0.03175 0.931331,0 1.312329,-0.08467 0.380999,-0.09525 0.380999,-0.328082 0,-0.222249 -0.285749,-0.296332 -0.275166,-0.08467 -0.984247,-0.08467 H 39.023515 V 78.3324 h 1.375829 q 0.465665,0 0.698498,-0.09525 0.232833,-0.09525 0.232833,-0.317499 0,-0.211666 -0.349249,-0.296333 -0.349249,-0.08467 -1.005414,-0.08467 -0.634998,0 -1.269996,0.0635 -0.634998,0.0635 -0.973663,0.148166 v -1.576912 q 0.518581,-0.137583 0.99483,-0.222249 0.476248,-0.09525 1.248829,-0.09525 h 0.423332 q 1.629828,0 2.338909,0.444499 0.709082,0.444499 0.709082,1.185329 0,0.465666 -0.201083,0.772581 -0.201083,0.306916 -0.465665,0.465666 0.433915,0.148166 0.709081,0.529165 0.275166,0.380998 0.275166,0.888997 0,1.015996 -0.814915,1.587495 -0.80433,0.560915 -2.550575,0.560915 z"
       id="text85" /><path
       style="font-size:10.5833px;font-family:Dashboard;-inkscape-font-specification:Dashboard;stroke-width:0.264583"
       d="m 159.17565,90.74222 q 0.0741,0.338665 0.40216,0.476248 0.33867,0.137583 0.9525,0.137583 1.21708,0 2.34949,-0.211666 v 1.375829 q -0.40216,0.137583 -0.92075,0.222249 -0.51858,0.09525 -1.42874,0.09525 h -0.14817 q -1.64041,0 -2.38124,-0.634998 -0.73025,-0.645581 -0.73025,-1.756828 v -0.169332 q 0,-0.656165 0.33867,-1.195913 0.34925,-0.550332 1.00541,-0.867831 0.65617,-0.328082 1.55575,-0.328082 h 0.14816 q 1.50283,0 2.13783,0.719664 0.635,0.709081 0.635,1.714495 v 0.423332 z m 1.13241,-1.587495 q -0.29633,0 -0.508,0.105833 -0.21166,0.09525 -0.33866,0.243416 -0.10584,0.126999 -0.10584,0.243416 0,0.148166 0.14817,0.148166 h 1.30174 q 0.254,0 0.254,-0.15875 0,-0.201082 -0.21166,-0.391582 -0.20108,-0.190499 -0.53975,-0.190499 z"
       id="path98" /><path
       style="font-size:10.5833px;font-family:Dashboard;-inkscape-font-specification:Dashboard;stroke-width:0.264583"
       d="m 156.84732,92.520214 q -0.0212,0.01058 -0.20108,0.09525 -0.17992,0.08467 -0.58208,0.148166 -0.40217,0.07408 -0.89959,0.07408 -0.87841,0 -1.24882,-0.370415 -0.37042,-0.370416 -0.37042,-1.09008 v -5.35515 h 1.90499 v 4.910651 q -0.0106,0.253999 0.10584,0.349249 0.127,0.08467 0.40216,0.08467 0.37042,0 0.889,-0.116417 z"
       id="path97" /><path
       style="font-size:10.5833px;font-family:Dashboard;-inkscape-font-specification:Dashboard;stroke-width:0.264583"
       d="m 150.11635,87.884729 q 0.75141,0 1.28058,0.317499 0.53975,0.306916 0.81491,0.846664 0.27517,0.539748 0.27517,1.227663 v 0.169332 q 0,0.666748 -0.27517,1.21708 -0.27516,0.539748 -0.81491,0.857247 -0.52917,0.317499 -1.28058,0.317499 h -0.14817 q -0.80433,0 -1.39699,-0.370415 v 0.264582 h -1.905 v -6.709812 h 1.905 v 2.233076 q 0.60325,-0.370415 1.39699,-0.370415 z m 0.46567,2.391826 q 0,-0.910164 -0.889,-0.910164 h -0.14817 q -0.51858,0 -0.80433,0.253999 -0.27516,0.243416 -0.27516,0.740831 0,0.497415 0.27516,0.751414 0.28575,0.243416 0.80433,0.243416 h 0.14817 q 0.43391,0 0.65616,-0.232832 0.23284,-0.243416 0.23284,-0.677332 z"
       id="path96" /><path
       style="font-size:10.5833px;font-family:Dashboard;-inkscape-font-specification:Dashboard;stroke-width:0.264583"
       d="m 143.35362,87.884729 q 2.14841,0 2.14841,2.18016 v 2.666991 h -1.90499 v -2.666991 q 0,-0.380999 -0.15875,-0.539749 -0.15875,-0.158749 -0.51858,-0.158749 h -0.14817 q -0.508,0 -0.68792,0.222249 -0.16933,0.222249 -0.16933,0.772581 h -0.0106 v 2.370659 h -1.905 v -2.666991 q 0,-0.380999 -0.15874,-0.539749 -0.15875,-0.158749 -0.51859,-0.158749 h -0.14816 q -0.48683,0 -0.67733,0.232832 -0.17992,0.22225 -0.17992,0.761998 v 2.370659 h -1.90499 v -4.741318 h 1.90499 v 0.285749 q 0.47625,-0.391582 1.29116,-0.391582 h 0.14817 q 1.15358,0 1.68274,0.624415 0.254,-0.306916 0.70908,-0.465666 0.45509,-0.158749 1.05833,-0.158749 z"
       id="path95" /><path
       style="font-size:10.5833px;font-family:Dashboard;-inkscape-font-specification:Dashboard;stroke-width:0.264583"
       d="m 131.43683,90.74222 q 0.0741,0.338665 0.40217,0.476248 0.33866,0.137583 0.95249,0.137583 1.21708,0 2.3495,-0.211666 v 1.375829 q -0.40217,0.137583 -0.92075,0.222249 -0.51858,0.09525 -1.42875,0.09525 h -0.14816 q -1.64041,0 -2.38125,-0.634998 -0.73024,-0.645581 -0.73024,-1.756828 v -0.169332 q 0,-0.656165 0.33866,-1.195913 0.34925,-0.550332 1.00542,-0.867831 0.65616,-0.328082 1.55574,-0.328082 h 0.14817 q 1.50283,0 2.13782,0.719664 0.635,0.709081 0.635,1.714495 v 0.423332 z m 1.13241,-1.587495 q -0.29633,0 -0.50799,0.105833 -0.21167,0.09525 -0.33867,0.243416 -0.10583,0.126999 -0.10583,0.243416 0,0.148166 0.14816,0.148166 h 1.30175 q 0.254,0 0.254,-0.15875 0,-0.201082 -0.21167,-0.391582 -0.20108,-0.190499 -0.53975,-0.190499 z"
       id="path94" /><path
       style="font-size:10.5833px;font-family:Dashboard;-inkscape-font-specification:Dashboard;stroke-width:0.264583"
       d="m 125.84886,89.927306 q 1.06891,0 1.68274,0.137583 0.62442,0.137583 0.889,0.423332 0.26458,0.285749 0.26458,0.751414 0,0.497415 -0.21166,0.836081 -0.20109,0.338665 -0.8255,0.550331 -0.62442,0.211666 -1.79916,0.211666 h -0.22225 q -0.91016,0 -1.72508,-0.07408 -0.80433,-0.07408 -1.03716,-0.148166 v -1.471079 q 0.17991,0.05292 1.19591,0.137583 1.016,0.07408 1.55575,0.07408 h 0.23283 q 0.83608,0 0.83608,-0.306915 0,-0.275166 -0.84666,-0.275166 h -0.64559 q -1.30174,0 -1.87324,-0.306916 -0.56091,-0.306916 -0.56091,-1.037163 0,-0.761998 0.68791,-1.15358 0.68791,-0.391582 2.16958,-0.391582 h 0.23283 q 0.762,0 1.48166,0.07408 0.73025,0.07408 1.02658,0.137583 v 1.481662 q -0.33866,-0.05292 -1.17475,-0.127 -0.83608,-0.08467 -1.33349,-0.08467 h -0.23283 q -0.53975,0 -0.75142,0.0635 -0.20108,0.05292 -0.20108,0.190499 0,0.15875 0.20108,0.232833 0.20108,0.07408 0.75142,0.07408 z"
       id="path93" /><path
       style="font-size:10.5833px;font-family:Dashboard;-inkscape-font-specification:Dashboard;stroke-width:0.264583"
       d="m 119.55179,87.884729 q 2.14841,0 2.14841,2.18016 v 2.666991 h -1.905 v -2.666991 q 0,-0.380999 -0.15875,-0.539749 -0.15874,-0.158749 -0.51858,-0.158749 h -0.14816 q -0.58208,0 -0.8255,0.232832 -0.24342,0.232833 -0.24342,0.761998 v 2.370659 h -1.90499 v -4.741318 h 1.90499 v 0.275166 q 0.53975,-0.380999 1.50283,-0.380999 z"
       id="path92" /><path
       style="font-size:10.5833px;font-family:Dashboard;-inkscape-font-specification:Dashboard;stroke-width:0.264583"
       d="m 111.02166,90.74222 q 0.0741,0.338665 0.40217,0.476248 0.33866,0.137583 0.95249,0.137583 1.21708,0 2.3495,-0.211666 v 1.375829 q -0.40217,0.137583 -0.92075,0.222249 -0.51858,0.09525 -1.42875,0.09525 h -0.14816 q -1.64041,0 -2.38124,-0.634998 -0.73025,-0.645581 -0.73025,-1.756828 v -0.169332 q 0,-0.656165 0.33866,-1.195913 0.34925,-0.550332 1.00542,-0.867831 0.65616,-0.328082 1.55574,-0.328082 h 0.14817 q 1.50283,0 2.13783,0.719664 0.63499,0.709081 0.63499,1.714495 v 0.423332 z m 1.13242,-1.587495 q -0.29634,0 -0.508,0.105833 -0.21167,0.09525 -0.33867,0.243416 -0.10583,0.126999 -0.10583,0.243416 0,0.148166 0.14816,0.148166 h 1.30175 q 0.254,0 0.254,-0.15875 0,-0.201082 -0.21167,-0.391582 -0.20108,-0.190499 -0.53974,-0.190499 z"
       id="path91" /><path
       style="font-size:10.5833px;font-family:Dashboard;-inkscape-font-specification:Dashboard;stroke-width:0.264583"
       d="m 101.17921,90.74222 q 0.0741,0.338665 0.40216,0.476248 0.33867,0.137583 0.9525,0.137583 1.21708,0 2.34949,-0.211666 v 1.375829 q -0.40216,0.137583 -0.92074,0.222249 -0.51858,0.09525 -1.42875,0.09525 h -0.14816 q -1.64042,0 -2.38125,-0.634998 -0.730245,-0.645581 -0.730245,-1.756828 v -0.169332 q 0,-0.656165 0.338666,-1.195913 0.349249,-0.550332 1.005409,-0.867831 0.65617,-0.328082 1.55575,-0.328082 h 0.14817 q 1.50282,0 2.13782,0.719664 0.635,0.709081 0.635,1.714495 v 0.423332 z m 1.13241,-1.587495 q -0.29633,0 -0.508,0.105833 -0.21166,0.09525 -0.33866,0.243416 -0.10583,0.126999 -0.10583,0.243416 0,0.148166 0.14816,0.148166 h 1.30175 q 0.254,0 0.254,-0.15875 0,-0.201082 -0.21167,-0.391582 -0.20108,-0.190499 -0.53975,-0.190499 z"
       id="path90" /><path
       style="font-size:10.5833px;font-family:Dashboard;-inkscape-font-specification:Dashboard;stroke-width:0.264583"
       d="m 95.982813,87.990562 v 0.423332 q 0.22225,-0.264583 0.634998,-0.402165 0.423332,-0.137583 0.867831,-0.137583 0.793747,0 1.259413,0.338665 v 1.471079 q -0.169333,-0.05292 -0.698498,-0.137583 -0.529165,-0.08467 -0.99483,-0.08467 -0.582082,0 -0.825498,0.243415 -0.243416,0.243416 -0.243416,0.825498 v 2.201326 h -1.904994 v -4.741318 z"
       id="path89" /><path
       style="font-size:10.5833px;font-family:Dashboard;-inkscape-font-specification:Dashboard;stroke-width:0.264583"
       d="m 92.807826,86.022068 v 6.709812 h -1.904994 v -0.264582 q -0.603248,0.370415 -1.396996,0.370415 H 89.35767 q -0.751414,0 -1.291163,-0.306916 -0.529165,-0.317498 -0.80433,-0.857247 -0.275166,-0.539748 -0.275166,-1.227663 v -0.169332 q 0,-0.666748 0.275166,-1.206496 0.275165,-0.550332 0.80433,-0.867831 0.539749,-0.317499 1.291163,-0.317499 h 0.148166 q 0.793748,0 1.396996,0.370415 v -2.233076 z m -2.878658,5.333983 q 0.518582,0 0.793747,-0.243416 0.28575,-0.253999 0.28575,-0.751414 0,-0.497415 -0.28575,-0.740831 -0.275165,-0.253999 -0.793747,-0.253999 h -0.148166 q -0.433915,0 -0.666748,0.243416 -0.222249,0.232832 -0.222249,0.666748 v 0.169332 q 0,0.910164 0.888997,0.910164 z"
       id="path88" /><path
       style="font-size:10.5833px;font-family:Dashboard;-inkscape-font-specification:Dashboard;stroke-width:0.264583"
       d="m 83.886101,87.884729 q 2.14841,0 2.14841,2.18016 v 2.666991 h -1.904994 v -2.666991 q 0,-0.380999 -0.15875,-0.539749 -0.158749,-0.158749 -0.518581,-0.158749 h -0.148167 q -0.582081,0 -0.825497,0.232832 -0.243416,0.232833 -0.243416,0.761998 v 2.370659 h -1.904994 v -4.741318 h 1.904994 v 0.275166 q 0.539748,-0.380999 1.502829,-0.380999 z"
       id="path87" /><path
       style="font-size:10.5833px;font-family:Dashboard;-inkscape-font-specification:Dashboard;stroke-width:0.264583"
       d="m 75.355971,90.74222 q 0.07408,0.338665 0.402165,0.476248 0.338666,0.137583 0.952497,0.137583 1.21708,0 2.349493,-0.211666 v 1.375829 q -0.402165,0.137583 -0.920747,0.222249 -0.518582,0.09525 -1.428746,0.09525 h -0.148166 q -1.640411,0 -2.381242,-0.634998 -0.730248,-0.645581 -0.730248,-1.756828 v -0.169332 q 0,-0.656165 0.338666,-1.195913 0.349249,-0.550332 1.005413,-0.867831 0.656165,-0.328082 1.555745,-0.328082 h 0.148166 q 1.502829,0 2.137827,0.719664 0.634998,0.709081 0.634998,1.714495 v 0.423332 z m 1.132413,-1.587495 q -0.296332,0 -0.507998,0.105833 -0.211666,0.09525 -0.338666,0.243416 -0.105833,0.126999 -0.105833,0.243416 0,0.148166 0.148166,0.148166 h 1.301746 q 0.253999,0 0.253999,-0.15875 0,-0.201082 -0.211666,-0.391582 -0.201082,-0.190499 -0.539748,-0.190499 z"
       id="path59" /><path
       style="font-size:10.5833px;font-family:Dashboard;-inkscape-font-specification:Dashboard;stroke-width:0.264583"
       d="m 70.159575,87.990562 v 0.423332 q 0.222249,-0.264583 0.634998,-0.402165 0.423332,-0.137583 0.867831,-0.137583 0.793747,0 1.259412,0.338665 v 1.471079 q -0.169333,-0.05292 -0.698498,-0.137583 -0.529165,-0.08467 -0.99483,-0.08467 -0.582081,0 -0.825497,0.243415 -0.243416,0.243416 -0.243416,0.825498 v 2.201326 h -1.904994 v -4.741318 z"
       id="path58" /><path
       style="font-size:10.5833px;font-family:Dashboard;-inkscape-font-specification:Dashboard;stroke-width:0.264583"
       d="m 64.825596,87.884729 q 0.751414,0 1.280579,0.317499 0.539748,0.306916 0.814914,0.846664 0.275166,0.539748 0.275166,1.227663 v 0.169332 q 0,0.666748 -0.275166,1.21708 -0.275166,0.539748 -0.814914,0.857247 -0.529165,0.317499 -1.280579,0.317499 H 64.67743 q -0.804331,0 -1.396996,-0.370415 v 2.233076 H 61.37544 v -6.709812 h 1.904994 v 0.264582 q 0.603248,-0.370415 1.396996,-0.370415 z m 0.465665,2.391826 q 0,-0.910164 -0.888997,-0.910164 h -0.148166 q -0.518582,0 -0.804331,0.253999 -0.275166,0.243416 -0.275166,0.740831 0,0.497415 0.275166,0.751414 0.285749,0.243416 0.804331,0.243416 h 0.148166 q 0.433915,0 0.656165,-0.232832 0.232832,-0.243416 0.232832,-0.677332 z"
       id="path57" /><path
       style="font-size:10.5833px;font-family:Dashboard;-inkscape-font-specification:Dashboard;stroke-width:0.264583"
       d="m 57.946455,87.884729 q 0.751414,0 1.280579,0.317499 0.539749,0.306916 0.814914,0.846664 0.275166,0.539748 0.275166,1.227663 v 0.169332 q 0,0.666748 -0.275166,1.21708 -0.275165,0.539748 -0.814914,0.857247 -0.529165,0.317499 -1.280579,0.317499 h -0.148166 q -0.804331,0 -1.396996,-0.370415 v 2.233076 h -1.904994 v -6.709812 h 1.904994 v 0.264582 q 0.603248,-0.370415 1.396996,-0.370415 z m 0.465665,2.391826 q 0,-0.910164 -0.888997,-0.910164 h -0.148166 q -0.518582,0 -0.804331,0.253999 -0.275166,0.243416 -0.275166,0.740831 0,0.497415 0.275166,0.751414 0.285749,0.243416 0.804331,0.243416 h 0.148166 q 0.433915,0 0.656165,-0.232832 0.232832,-0.243416 0.232832,-0.677332 z"
       id="path3" /><path
       style="font-size:10.5833px;font-family:Dashboard;-inkscape-font-specification:Dashboard;stroke-width:0.264583"
       d="m 50.686303,87.884729 q 1.344079,0 1.98966,0.507998 0.656165,0.497415 0.656165,1.672162 v 2.666991 h -1.904994 v -0.328082 q -0.243416,0.169333 -0.783164,0.306916 -0.539749,0.126999 -1.34408,0.126999 -2.02141,0 -2.02141,-1.513412 0,-0.761997 0.539749,-1.09008 0.550331,-0.338665 1.703911,-0.338665 h 0.116416 q 0.550332,0 1.05833,0.09525 0.518582,0.09525 0.730248,0.179916 v -0.211666 q 0,-0.317499 -0.243416,-0.455082 -0.243416,-0.137583 -0.920747,-0.137583 -0.709081,0 -1.481662,0.08467 -0.761998,0.07408 -0.96308,0.127 v -1.375829 q 0.391582,-0.116416 1.037163,-0.211666 0.656164,-0.105833 1.407579,-0.105833 z m -0.444499,3.481906 q 0.370416,0 0.740831,-0.0635 0.370416,-0.07408 0.444499,-0.148166 -0.127,-0.116417 -0.571498,-0.232833 -0.433916,-0.116416 -1.037164,-0.116416 -0.582081,0 -0.582081,0.296332 0,0.264583 0.582081,0.264583 z"
       id="path2" /><path
       style="font-size:10.5833px;font-family:Dashboard;-inkscape-font-specification:Dashboard;stroke-width:0.264583"
       d="m 45.352329,87.651896 q -0.243416,0 -0.465666,-0.465665 -0.211666,-0.465665 -0.349249,-1.079496 -0.137582,-0.624415 -0.137582,-0.963081 0,-0.423332 0.211666,-0.603248 0.211666,-0.179916 0.740831,-0.179916 0.550331,0 0.761997,0.179916 0.211666,0.179916 0.211666,0.603248 0,0.338666 -0.148166,0.952497 -0.137583,0.613832 -0.359832,1.09008 -0.22225,0.465665 -0.465665,0.465665 z"
       id="path1" /><path
       style="font-size:10.5833px;font-family:Dashboard;-inkscape-font-specification:Dashboard;stroke-width:0.264583"
       d="m 43.341505,86.022068 v 6.709812 h -1.904993 v -0.264582 q -0.603249,0.370415 -1.396996,0.370415 H 39.89135 q -0.751414,0 -1.291163,-0.306916 -0.529165,-0.317498 -0.804331,-0.857247 -0.275165,-0.539748 -0.275165,-1.227663 v -0.169332 q 0,-0.666748 0.275165,-1.206496 0.275166,-0.550332 0.804331,-0.867831 0.539749,-0.317499 1.291163,-0.317499 h 0.148166 q 0.793747,0 1.396996,0.370415 v -2.233076 z m -2.878657,5.333983 q 0.518582,0 0.793747,-0.243416 0.28575,-0.253999 0.28575,-0.751414 0,-0.497415 -0.28575,-0.740831 -0.275165,-0.253999 -0.793747,-0.253999 h -0.148166 q -0.433915,0 -0.666748,0.243416 -0.222249,0.232832 -0.222249,0.666748 v 0.169332 q 0,0.910164 0.888997,0.910164 z"
       id="text86" /><path
       style="font-size:42.3333px;font-family:Dashboard;-inkscape-font-specification:Dashboard;stroke-width:0.264583"
       d="m 144.98176,45.816812 q 6.30766,0 9.44033,3.132664 3.17499,3.132664 3.17499,8.97466 v 1.481665 q 0,5.841996 -3.25966,9.016994 -3.21733,3.132664 -9.35566,3.132664 h -1.82033 q -3.683,0 -6.858,-0.423333 -3.17499,-0.381 -4.14866,-0.846666 v -6.349995 q 1.524,0.338666 4.36033,0.592666 2.87866,0.254 6.64633,0.254 3.048,0 4.61433,-0.804333 1.60866,-0.846666 1.60866,-2.116665 0,-0.719666 -0.55033,-0.719666 -0.21167,0 -0.33867,0.04233 -3.34433,0.888999 -7.02732,0.888999 -5.715,0 -8.29733,-1.693332 -2.58233,-1.693332 -2.58233,-5.545662 0,-2.709332 1.524,-4.74133 1.52399,-2.031998 4.36033,-3.132664 2.87866,-1.142999 6.68866,-1.142999 z m 0.0423,10.752658 q 4.36033,0 4.36033,-1.354666 0,-1.058332 -1.10066,-1.820331 -1.10067,-0.804333 -3.302,-0.804333 h -1.778 q -2.032,0 -3.13266,0.592666 -1.05834,0.550333 -1.05834,1.481666 0,1.904998 4.14867,1.904998 z"
       id="path106" /><path
       style="font-size:42.3333px;font-family:Dashboard;-inkscape-font-specification:Dashboard;stroke-width:0.264583"
       d="m 116.19508,52.971139 h -6.34999 v -5.884328 l 14.81665,-1.269999 v 25.315314 h -8.46666 z"
       id="path105" /><path
       style="font-size:42.3333px;font-family:Dashboard;-inkscape-font-specification:Dashboard;stroke-width:0.264583"
       d="m 90.03307,62.242133 q 0.169334,-0.169334 0.169334,-0.423333 0,-0.254 -0.169334,-0.423334 l -7.74699,-9.228659 h 8.97466 l 3.471331,5.291662 q 0.254,0.423333 0.634999,0.423333 0.381,0 0.635,-0.423333 l 3.555997,-5.291662 h 9.016993 l -7.61999,9.228659 q -0.16934,0.254 -0.16934,0.423334 0,0.169333 0.16934,0.423333 l 7.61999,8.889993 H 99.515734 L 96.00207,66.05213 q -0.254,-0.381 -0.635,-0.381 -0.380999,0 -0.634999,0.381 -0.296333,0.465666 -3.471331,5.079996 h -8.97466 z"
       id="path104" /><path
       style="font-size:42.3333px;font-family:Dashboard;-inkscape-font-specification:Dashboard;stroke-width:0.264583"
       d="m 67.130792,45.816812 q 6.307662,0 9.440326,3.132664 3.174998,3.132664 3.174998,8.97466 v 1.481665 q 0,5.841996 -3.259664,9.016994 -3.217331,3.132664 -9.35566,3.132664 H 65.31046 q -3.682997,0 -6.857995,-0.423333 -3.174997,-0.381 -4.148663,-0.846666 v -6.349995 q 1.523999,0.338666 4.36033,0.592666 2.878664,0.254 6.646328,0.254 3.047998,0 4.61433,-0.804333 1.608666,-0.846666 1.608666,-2.116665 0,-0.719666 -0.550333,-0.719666 -0.211667,0 -0.338667,0.04233 -3.344331,0.888999 -7.027328,0.888999 -5.714996,0 -8.297327,-1.693332 -2.582331,-1.693332 -2.582331,-5.545662 0,-2.709332 1.523999,-4.74133 1.523998,-2.031998 4.36033,-3.132664 2.878664,-1.142999 6.688661,-1.142999 z m 0.04233,10.752658 q 4.36033,0 4.36033,-1.354666 0,-1.058332 -1.100666,-1.820331 Q 69.33212,52.59014 67.130788,52.59014 H 65.35279 q -2.031999,0 -3.132665,0.592666 -1.058332,0.550333 -1.058332,1.481666 0,1.904998 4.148663,1.904998 z"
       id="path103" /><path
       style="font-size:42.3333px;font-family:Dashboard;-inkscape-font-specification:Dashboard;stroke-width:0.264583"
       d="m 38.344115,52.971139 h -6.349996 v -5.884328 l 14.816656,-1.269999 v 25.315314 h -8.46666 z"
       id="path86" /></g><g
     id="g56"
     style="display:none"
     transform="translate(-9.8208989,-40.111325)"><text
       xml:space="preserve"
       style="font-size:42.3333px;font-family:Dashboard;-inkscape-font-specification:Dashboard;text-align:start;writing-mode:lr-tb;direction:ltr;text-anchor:start;fill:#000000;stroke-width:0.264583"
       x="31.147453"
       y="89.620537"
       id="text30"><tspan
         id="tspan30"
         style="font-size:42.3333px;stroke-width:0.264583"
         x="31.147453"
         y="89.620537">19x19</tspan></text><circle
       id="circle30"
       style="color:#000000;display:inline;fill:#000000;stroke:#000000;stroke-width:1.28631"
       cx="23.372046"
       cy="97.074715"
       r="6.4315605" /><rect
       style="fill:#000000;stroke-width:0.0895513"
       id="rect30"
       width="2"
       height="56.673847"
       x="22.326647"
       y="58.741955" /><rect
       style="fill:#000000;stroke-width:0.148435"
       id="rect31"
       width="2"
       height="155.70718"
       x="-97.934891"
       y="9.820899"
       transform="rotate(-90)" /><text
       xml:space="preserve"
       style="font-size:6.87917px;font-family:Dashboard;-inkscape-font-specification:Dashboard;text-align:start;writing-mode:lr-tb;direction:ltr;text-anchor:start;fill:#000000;fill-opacity:1;stroke-width:0.264583"
       x="26.808195"
       y="110.69483"
       id="text56"><tspan
         id="tspan56"
         style="font-size:6.87917px;stroke-width:0.264583"
         x="26.808195"
         y="110.69483">361 occasions d'apprendre ensemble</tspan></text></g><g
     id="g58"
     style="display:none"
     transform="translate(-9.8208989,-40.111325)"><text
       xml:space="preserve"
       style="font-size:42.3333px;font-family:Dashboard;-inkscape-font-specification:Dashboard;text-align:start;writing-mode:lr-tb;direction:ltr;text-anchor:start;fill:#000000;stroke-width:0.264583"
       x="31.147453"
       y="89.620537"
       id="text57"><tspan
         id="tspan57"
         style="font-size:42.3333px;stroke-width:0.264583"
         x="31.147453"
         y="89.620537">19x19</tspan></text><circle
       id="circle57"
       style="color:#000000;display:inline;fill:#000000;stroke:#000000;stroke-width:1.28631"
       cx="23.372046"
       cy="97.074715"
       r="6.4315605" /><rect
       style="fill:#000000;stroke-width:0.0895513"
       id="rect57"
       width="2"
       height="56.673847"
       x="22.326647"
       y="58.741955" /><rect
       style="fill:#000000;stroke-width:0.148435"
       id="rect58"
       width="2"
       height="155.70718"
       x="-97.934891"
       y="9.820899"
       transform="rotate(-90)" /><text
       xml:space="preserve"
       style="font-size:6.79781px;font-family:Dashboard;-inkscape-font-specification:Dashboard;text-align:start;writing-mode:lr-tb;direction:ltr;text-anchor:start;fill:#4d4d4d;fill-opacity:1;stroke-width:0.261456"
       x="36.539581"
       y="106.16885"
       id="text58"
       transform="scale(1.0119663,0.98817521)"><tspan
         style="font-size:6.79781px;fill:#4d4d4d;fill-opacity:1;stroke-width:0.261456"
         x="36.539581"
         y="106.16885"
         id="tspan59">Ce que lon voit, on le rejoue.</tspan></text><text
       xml:space="preserve"
       style="font-size:6.87917px;font-family:Dashboard;-inkscape-font-specification:Dashboard;text-align:start;writing-mode:lr-tb;direction:ltr;text-anchor:start;fill:#4d4d4d;fill-opacity:1;stroke-width:0.264583"
       x="36.976826"
       y="104.24619"
       id="text60"><tspan
         id="tspan60"
         style="fill:#4d4d4d;fill-opacity:1;stroke-width:0.264583"
         x="36.976826"
         y="104.24619" /><tspan
         style="fill:#4d4d4d;fill-opacity:1;stroke-width:0.264583"
         x="36.976826"
         y="112.84515"
         id="tspan61">Ce que lon rejoue, on le retient.</tspan></text></g><g
     id="g65"
     style="display:none"
     transform="translate(-9.8208989,-40.111325)"><text
       xml:space="preserve"
       style="font-size:42.3333px;font-family:Dashboard;-inkscape-font-specification:Dashboard;text-align:start;writing-mode:lr-tb;direction:ltr;text-anchor:start;fill:#000000;stroke-width:0.264583"
       x="31.147453"
       y="82.152565"
       id="text62"><tspan
         id="tspan62"
         style="font-size:42.3333px;stroke-width:0.264583"
         x="31.147453"
         y="82.152565">19x19</tspan></text><circle
       id="circle62"
       style="color:#000000;display:inline;fill:#000000;stroke:#000000;stroke-width:1.28631"
       cx="23.372046"
       cy="97.074715"
       r="6.4315605" /><rect
       style="fill:#000000;stroke-width:0.0939034"
       id="rect62"
       width="2"
       height="62.316315"
       x="22.326647"
       y="53.099487" /><rect
       style="fill:#000000;stroke-width:0.148435"
       id="rect63"
       width="2"
       height="155.70718"
       x="-97.934891"
       y="9.820899"
       transform="rotate(-90)" /><text
       xml:space="preserve"
       style="font-size:6.79781px;font-family:Dashboard;-inkscape-font-specification:Dashboard;text-align:start;writing-mode:lr-tb;direction:ltr;text-anchor:start;fill:#4d4d4d;fill-opacity:1;stroke-width:0.261456"
       x="36.539581"
       y="106.16885"
       id="text63"
       transform="scale(1.0119663,0.98817521)"><tspan
         style="font-size:6.79781px;fill:#4d4d4d;fill-opacity:1;stroke-width:0.261456"
         x="36.539581"
         y="106.16885"
         id="tspan63">Ce que lon voit, on le rejoue.</tspan></text><text
       xml:space="preserve"
       style="font-size:6.87917px;font-family:Dashboard;-inkscape-font-specification:Dashboard;text-align:start;writing-mode:lr-tb;direction:ltr;text-anchor:start;fill:#4d4d4d;fill-opacity:1;stroke-width:0.264583"
       x="36.976826"
       y="104.24619"
       id="text65"><tspan
         id="tspan64"
         style="fill:#4d4d4d;fill-opacity:1;stroke-width:0.264583"
         x="36.976826"
         y="104.24619" /><tspan
         style="fill:#4d4d4d;fill-opacity:1;stroke-width:0.264583"
         x="36.976826"
         y="112.84515"
         id="tspan65">Ce que lon rejoue, on le retient.</tspan></text><text
       xml:space="preserve"
       style="font-size:6.34129px;font-family:Dashboard;-inkscape-font-specification:Dashboard;text-align:start;writing-mode:lr-tb;direction:ltr;text-anchor:start;display:inline;fill:#000000;fill-opacity:1;stroke-width:0.243895"
       x="31.71088"
       y="91.033844"
       id="text56-9"><tspan
         id="tspan56-3"
         style="font-size:6.34129px;stroke-width:0.243895"
         x="31.71088"
         y="91.033844">361 occasions d'apprendre ensemble</tspan></text></g></svg>
